<svg width="280" height="100" viewBox="0 0 280 100" fill="none" xmlns="http://www.w3.org/2000/svg" role="img" aria-label="mask2ai">
<path d="M16 24 H54 A10 10 0 0 1 64 34 V60 A10 10 0 0 1 54 70 H30 L18 80 V70 H16 A10 10 0 0 1 6 60 V34 A10 10 0 0 1 16 24 Z" stroke="#f6f5f1" stroke-width="5" stroke-linejoin="round"/>
<rect x="17" y="35" width="30" height="4" rx="2" fill="#f6f5f1"/>
<rect x="17" y="45" width="36" height="4" rx="2" fill="#f6f5f1"/>
<rect x="17" y="55" width="22" height="4" rx="2" fill="#f6f5f1"/>
<path d="M72 52 H92" stroke="#f6f5f1" stroke-width="3" stroke-linecap="round"/>
<path d="M88 46 L94 52 L88 58" stroke="#f6f5f1" stroke-width="3" stroke-linecap="round" stroke-linejoin="round"/>
<g transform="translate(100 34)">
<path d="M0 10 C0 0 14 -2 34 5 C54 -2 68 0 68 10 C68 26 56 36 47 34 C40 32 37 24 34 24 C31 24 28 32 21 34 C12 36 0 26 0 10 Z" fill="#a78bfa"/>
<ellipse cx="20" cy="14" rx="8" ry="5" fill="#171a21"/>
<ellipse cx="48" cy="14" rx="8" ry="5" fill="#171a21"/>
</g>
<path d="M176 52 H196" stroke="#f6f5f1" stroke-width="3" stroke-linecap="round"/>
<path d="M192 46 L198 52 L192 58" stroke="#f6f5f1" stroke-width="3" stroke-linecap="round" stroke-linejoin="round"/>
<rect x="208" y="26" width="66" height="58" rx="10" stroke="#f6f5f1" stroke-width="6"/>
<path d="M241 26 V12" stroke="#f6f5f1" stroke-width="5" stroke-linecap="round"/>
<circle cx="241" cy="9" r="5" fill="#a78bfa"/>
<rect x="202" y="46" width="6" height="18" rx="2" fill="#f6f5f1"/>
<rect x="274" y="46" width="6" height="18" rx="2" fill="#f6f5f1"/>
<rect x="221" y="42" width="14" height="14" rx="2" fill="#f6f5f1"/>
<rect x="247" y="42" width="14" height="14" rx="2" fill="#f6f5f1"/>
<rect x="224" y="65" width="34" height="6" rx="3" fill="#f6f5f1"/>
</svg>